<?xml version="1.0" encoding="UTF-8" standalone="no"?>
<!DOCTYPE svg PUBLIC "-//W3C//DTD SVG 1.1//EN"
 "http://www.w3.org/Graphics/SVG/1.1/DTD/svg11.dtd">
<!-- Generated by graphviz version 2.38.0 (20140413.2041)
 -->
<!-- Title: debug.h Pages: 1 -->
<svg width="144pt" height="84pt"
 viewBox="0.00 0.00 144.00 84.00" xmlns="http://www.w3.org/2000/svg" xmlns:xlink="http://www.w3.org/1999/xlink">
<g id="graph0" class="graph" transform="scale(1 1) rotate(0) translate(4 80)">
<title>debug.h</title>
<polygon fill="white" stroke="none" points="-4,4 -4,-80 140,-80 140,4 -4,4"/>
<!-- Node1 -->
<g id="node1" class="node"><title>Node1</title>
<polygon fill="#bfbfbf" stroke="black" points="47.5,-56.5 47.5,-75.5 98.5,-75.5 98.5,-56.5 47.5,-56.5"/>
<text text-anchor="middle" x="73" y="-63.5" font-family="Helvetica,sans-Serif" font-size="10.00">debug.h</text>
</g>
<!-- Node2 -->
<g id="node2" class="node"><title>Node2</title>
<g id="a_node2"><a xlink:href="life3d-omp_8h.html" target="_top" xlink:title="Function prototypes for life3d&#45;omp.c. ">
<polygon fill="white" stroke="black" points="0,-0.5 0,-19.5 70,-19.5 70,-0.5 0,-0.5"/>
<text text-anchor="middle" x="35" y="-7.5" font-family="Helvetica,sans-Serif" font-size="10.00">life3d&#45;omp.h</text>
</a>
</g>
</g>
<!-- Node1&#45;&gt;Node2 -->
<g id="edge1" class="edge"><title>Node1&#45;&gt;Node2</title>
<path fill="none" stroke="midnightblue" d="M60.9353,-47.8554C54.3553,-38.5048 46.489,-27.3265 41.1582,-19.7511"/>
<polygon fill="midnightblue" stroke="midnightblue" points="58.1078,-49.9192 66.7251,-56.083 63.8324,-45.8907 58.1078,-49.9192"/>
</g>
<!-- Node3 -->
<g id="node3" class="node"><title>Node3</title>
<g id="a_node3"><a xlink:href="life3d_8h.html" target="_top" xlink:title="Function prototypes for life3d.c. ">
<polygon fill="white" stroke="black" points="88,-0.5 88,-19.5 136,-19.5 136,-0.5 88,-0.5"/>
<text text-anchor="middle" x="112" y="-7.5" font-family="Helvetica,sans-Serif" font-size="10.00">life3d.h</text>
</a>
</g>
</g>
<!-- Node1&#45;&gt;Node3 -->
<g id="edge2" class="edge"><title>Node1&#45;&gt;Node3</title>
<path fill="none" stroke="midnightblue" d="M85.3822,-47.8554C92.1354,-38.5048 100.209,-27.3265 105.68,-19.7511"/>
<polygon fill="midnightblue" stroke="midnightblue" points="82.4576,-45.927 79.4401,-56.083 88.1324,-50.0254 82.4576,-45.927"/>
</g>
</g>
</svg>
