<?xml version="1.0" encoding="UTF-8" standalone="no"?>
<!DOCTYPE svg PUBLIC "-//W3C//DTD SVG 1.1//EN"
 "http://www.w3.org/Graphics/SVG/1.1/DTD/svg11.dtd">
<!-- Generated by graphviz version 2.38.0 (20140413.2041)
 -->
<!-- Title: life3d&#45;omp.h Pages: 1 -->
<svg width="309pt" height="140pt"
 viewBox="0.00 0.00 308.50 140.00" xmlns="http://www.w3.org/2000/svg" xmlns:xlink="http://www.w3.org/1999/xlink">
<g id="graph0" class="graph" transform="scale(1 1) rotate(0) translate(4 136)">
<title>life3d&#45;omp.h</title>
<polygon fill="white" stroke="none" points="-4,4 -4,-136 304.5,-136 304.5,4 -4,4"/>
<!-- Node1 -->
<g id="node1" class="node"><title>Node1</title>
<polygon fill="#bfbfbf" stroke="black" points="117,-112.5 117,-131.5 187,-131.5 187,-112.5 117,-112.5"/>
<text text-anchor="middle" x="152" y="-119.5" font-family="Helvetica,sans-Serif" font-size="10.00">life3d&#45;omp.h</text>
</g>
<!-- Node2 -->
<g id="node2" class="node"><title>Node2</title>
<polygon fill="white" stroke="#bfbfbf" points="0,-0.5 0,-19.5 46,-19.5 46,-0.5 0,-0.5"/>
<text text-anchor="middle" x="23" y="-7.5" font-family="Helvetica,sans-Serif" font-size="10.00">stdio.h</text>
</g>
<!-- Node1&#45;&gt;Node2 -->
<g id="edge1" class="edge"><title>Node1&#45;&gt;Node2</title>
<path fill="none" stroke="midnightblue" d="M131.806,-112.494C114.691,-104.651 90.1122,-91.8413 72,-76 56.2699,-62.2422 42.3628,-42.6902 33.4213,-28.6285"/>
<polygon fill="midnightblue" stroke="midnightblue" points="36.2806,-26.5964 28.0629,-19.9092 30.3168,-30.2615 36.2806,-26.5964"/>
</g>
<!-- Node3 -->
<g id="node3" class="node"><title>Node3</title>
<polygon fill="white" stroke="#bfbfbf" points="64,-0.5 64,-19.5 112,-19.5 112,-0.5 64,-0.5"/>
<text text-anchor="middle" x="88" y="-7.5" font-family="Helvetica,sans-Serif" font-size="10.00">stdlib.h</text>
</g>
<!-- Node1&#45;&gt;Node3 -->
<g id="edge2" class="edge"><title>Node1&#45;&gt;Node3</title>
<path fill="none" stroke="midnightblue" d="M126.496,-112.472C110.013,-105.478 89.8612,-93.792 80,-76 72.0846,-61.7187 75.5674,-43.0053 80.1511,-29.3266"/>
<polygon fill="midnightblue" stroke="midnightblue" points="83.5616,-30.2072 83.8665,-19.6168 77.0238,-27.7056 83.5616,-30.2072"/>
</g>
<!-- Node4 -->
<g id="node4" class="node"><title>Node4</title>
<polygon fill="white" stroke="#bfbfbf" points="130.5,-0.5 130.5,-19.5 179.5,-19.5 179.5,-0.5 130.5,-0.5"/>
<text text-anchor="middle" x="155" y="-7.5" font-family="Helvetica,sans-Serif" font-size="10.00">string.h</text>
</g>
<!-- Node1&#45;&gt;Node4 -->
<g id="edge3" class="edge"><title>Node1&#45;&gt;Node4</title>
<path fill="none" stroke="midnightblue" d="M154.73,-112.486C157.451,-103.52 161.442,-88.9354 163,-76 164.872,-60.4592 162.417,-42.835 159.747,-29.8627"/>
<polygon fill="midnightblue" stroke="midnightblue" points="163.094,-28.7959 157.449,-19.8296 156.27,-30.3586 163.094,-28.7959"/>
</g>
<!-- Node5 -->
<g id="node5" class="node"><title>Node5</title>
<polygon fill="white" stroke="#bfbfbf" points="198,-0.5 198,-19.5 242,-19.5 242,-0.5 198,-0.5"/>
<text text-anchor="middle" x="220" y="-7.5" font-family="Helvetica,sans-Serif" font-size="10.00">omp.h</text>
</g>
<!-- Node1&#45;&gt;Node5 -->
<g id="edge4" class="edge"><title>Node1&#45;&gt;Node5</title>
<path fill="none" stroke="midnightblue" d="M157.336,-112.368C168.508,-94.2957 194.545,-52.1764 209.301,-28.3074"/>
<polygon fill="midnightblue" stroke="midnightblue" points="212.408,-29.9378 214.689,-19.5914 206.454,-26.257 212.408,-29.9378"/>
</g>
<!-- Node6 -->
<g id="node6" class="node"><title>Node6</title>
<g id="a_node6"><a xlink:href="lists-omp_8h.html" target="_top" xlink:title="Function prototypes for lists&#45;omp.c. ">
<polygon fill="white" stroke="black" points="89.5,-56.5 89.5,-75.5 154.5,-75.5 154.5,-56.5 89.5,-56.5"/>
<text text-anchor="middle" x="122" y="-63.5" font-family="Helvetica,sans-Serif" font-size="10.00">lists&#45;omp.h</text>
</a>
</g>
</g>
<!-- Node1&#45;&gt;Node6 -->
<g id="edge5" class="edge"><title>Node1&#45;&gt;Node6</title>
<path fill="none" stroke="midnightblue" d="M147.046,-112.083C142.896,-104.613 136.847,-93.7244 131.733,-84.5199"/>
<polygon fill="midnightblue" stroke="midnightblue" points="134.778,-82.7929 126.862,-75.7511 128.659,-86.1924 134.778,-82.7929"/>
</g>
<!-- Node7 -->
<g id="node7" class="node"><title>Node7</title>
<g id="a_node7"><a xlink:href="debug_8h.html" target="_top" xlink:title="Macros for debug and verbose options. ">
<polygon fill="white" stroke="black" points="249.5,-56.5 249.5,-75.5 300.5,-75.5 300.5,-56.5 249.5,-56.5"/>
<text text-anchor="middle" x="275" y="-63.5" font-family="Helvetica,sans-Serif" font-size="10.00">debug.h</text>
</a>
</g>
</g>
<!-- Node1&#45;&gt;Node7 -->
<g id="edge10" class="edge"><title>Node1&#45;&gt;Node7</title>
<path fill="none" stroke="midnightblue" d="M171.49,-112.444C191.642,-103.596 223.323,-89.6875 246.331,-79.5865"/>
<polygon fill="midnightblue" stroke="midnightblue" points="247.852,-82.7411 255.601,-75.5164 245.038,-76.3316 247.852,-82.7411"/>
</g>
<!-- Node6&#45;&gt;Node2 -->
<g id="edge6" class="edge"><title>Node6&#45;&gt;Node2</title>
<path fill="none" stroke="midnightblue" d="M106.094,-56.324C90.3618,-47.7428 66.0577,-34.486 47.7911,-24.5224"/>
<polygon fill="midnightblue" stroke="midnightblue" points="49.3216,-21.3704 38.8666,-19.6545 45.9696,-27.5157 49.3216,-21.3704"/>
</g>
<!-- Node6&#45;&gt;Node3 -->
<g id="edge7" class="edge"><title>Node6&#45;&gt;Node3</title>
<path fill="none" stroke="midnightblue" d="M116.386,-56.083C111.633,-48.5341 104.682,-37.4948 98.8484,-28.2298"/>
<polygon fill="midnightblue" stroke="midnightblue" points="101.8,-26.3486 93.5099,-19.7511 95.8763,-30.0783 101.8,-26.3486"/>
</g>
<!-- Node6&#45;&gt;Node4 -->
<g id="edge8" class="edge"><title>Node6&#45;&gt;Node4</title>
<path fill="none" stroke="midnightblue" d="M127.449,-56.083C132.014,-48.6127 138.668,-37.7244 144.293,-28.5199"/>
<polygon fill="midnightblue" stroke="midnightblue" points="147.424,-30.109 149.652,-19.7511 141.451,-26.4588 147.424,-30.109"/>
</g>
<!-- Node6&#45;&gt;Node5 -->
<g id="edge9" class="edge"><title>Node6&#45;&gt;Node5</title>
<path fill="none" stroke="midnightblue" d="M137.745,-56.324C153.319,-47.7428 177.377,-34.486 195.459,-24.5224"/>
<polygon fill="midnightblue" stroke="midnightblue" points="197.224,-27.546 204.294,-19.6545 193.846,-21.4152 197.224,-27.546"/>
</g>
</g>
</svg>
