<?xml version="1.0" encoding="UTF-8" standalone="no"?>
<!DOCTYPE svg PUBLIC "-//W3C//DTD SVG 1.1//EN"
 "http://www.w3.org/Graphics/SVG/1.1/DTD/svg11.dtd">
<!-- Generated by graphviz version 2.38.0 (20140413.2041)
 -->
<!-- Title: life3d.h Pages: 1 -->
<svg width="310pt" height="140pt"
 viewBox="0.00 0.00 309.50 140.00" xmlns="http://www.w3.org/2000/svg" xmlns:xlink="http://www.w3.org/1999/xlink">
<g id="graph0" class="graph" transform="scale(1 1) rotate(0) translate(4 136)">
<title>life3d.h</title>
<polygon fill="white" stroke="none" points="-4,4 -4,-136 305.5,-136 305.5,4 -4,4"/>
<!-- Node1 -->
<g id="node1" class="node"><title>Node1</title>
<polygon fill="#bfbfbf" stroke="black" points="117,-112.5 117,-131.5 165,-131.5 165,-112.5 117,-112.5"/>
<text text-anchor="middle" x="141" y="-119.5" font-family="Helvetica,sans-Serif" font-size="10.00">life3d.h</text>
</g>
<!-- Node2 -->
<g id="node2" class="node"><title>Node2</title>
<polygon fill="white" stroke="#bfbfbf" points="0,-0.5 0,-19.5 46,-19.5 46,-0.5 0,-0.5"/>
<text text-anchor="middle" x="23" y="-7.5" font-family="Helvetica,sans-Serif" font-size="10.00">stdio.h</text>
</g>
<!-- Node1&#45;&gt;Node2 -->
<g id="edge1" class="edge"><title>Node1&#45;&gt;Node2</title>
<path fill="none" stroke="midnightblue" d="M116.867,-116.302C94.0871,-110.621 60.5854,-98.8301 41,-76 29.9307,-63.0968 25.6274,-43.9224 23.976,-29.7404"/>
<polygon fill="midnightblue" stroke="midnightblue" points="27.4541,-29.3295 23.1416,-19.6521 20.4779,-29.9066 27.4541,-29.3295"/>
</g>
<!-- Node3 -->
<g id="node3" class="node"><title>Node3</title>
<polygon fill="white" stroke="#bfbfbf" points="65,-0.5 65,-19.5 113,-19.5 113,-0.5 65,-0.5"/>
<text text-anchor="middle" x="89" y="-7.5" font-family="Helvetica,sans-Serif" font-size="10.00">stdlib.h</text>
</g>
<!-- Node1&#45;&gt;Node3 -->
<g id="edge2" class="edge"><title>Node1&#45;&gt;Node3</title>
<path fill="none" stroke="midnightblue" d="M136.92,-112.368C128.452,-94.4563 108.818,-52.9233 97.4846,-28.9482"/>
<polygon fill="midnightblue" stroke="midnightblue" points="100.5,-27.1363 93.0614,-19.5914 94.171,-30.128 100.5,-27.1363"/>
</g>
<!-- Node4 -->
<g id="node4" class="node"><title>Node4</title>
<polygon fill="white" stroke="#bfbfbf" points="134.5,-0.5 134.5,-19.5 183.5,-19.5 183.5,-0.5 134.5,-0.5"/>
<text text-anchor="middle" x="159" y="-7.5" font-family="Helvetica,sans-Serif" font-size="10.00">string.h</text>
</g>
<!-- Node1&#45;&gt;Node4 -->
<g id="edge3" class="edge"><title>Node1&#45;&gt;Node4</title>
<path fill="none" stroke="midnightblue" d="M142.412,-112.368C145.317,-94.617 152.018,-53.6664 155.957,-29.5974"/>
<polygon fill="midnightblue" stroke="midnightblue" points="159.433,-30.0254 157.594,-19.5914 152.525,-28.8949 159.433,-30.0254"/>
</g>
<!-- Node5 -->
<g id="node5" class="node"><title>Node5</title>
<polygon fill="white" stroke="#bfbfbf" points="188,-56.5 188,-75.5 232,-75.5 232,-56.5 188,-56.5"/>
<text text-anchor="middle" x="210" y="-63.5" font-family="Helvetica,sans-Serif" font-size="10.00">omp.h</text>
</g>
<!-- Node1&#45;&gt;Node5 -->
<g id="edge4" class="edge"><title>Node1&#45;&gt;Node5</title>
<path fill="none" stroke="midnightblue" d="M152.086,-112.324C162.486,-104.185 178.261,-91.8395 190.722,-82.0874"/>
<polygon fill="midnightblue" stroke="midnightblue" points="192.994,-84.7533 198.712,-75.8339 188.68,-79.2407 192.994,-84.7533"/>
</g>
<!-- Node6 -->
<g id="node6" class="node"><title>Node6</title>
<g id="a_node6"><a xlink:href="lists_8h.html" target="_top" xlink:title="Function prototypes for lists.c. ">
<polygon fill="white" stroke="black" points="50.5,-56.5 50.5,-75.5 93.5,-75.5 93.5,-56.5 50.5,-56.5"/>
<text text-anchor="middle" x="72" y="-63.5" font-family="Helvetica,sans-Serif" font-size="10.00">lists.h</text>
</a>
</g>
</g>
<!-- Node1&#45;&gt;Node6 -->
<g id="edge5" class="edge"><title>Node1&#45;&gt;Node6</title>
<path fill="none" stroke="midnightblue" d="M129.914,-112.324C119.514,-104.185 103.739,-91.8395 91.2784,-82.0874"/>
<polygon fill="midnightblue" stroke="midnightblue" points="93.3199,-79.2407 83.2878,-75.8339 89.0057,-84.7533 93.3199,-79.2407"/>
</g>
<!-- Node7 -->
<g id="node7" class="node"><title>Node7</title>
<g id="a_node7"><a xlink:href="debug_8h.html" target="_top" xlink:title="Macros for debug and verbose options. ">
<polygon fill="white" stroke="black" points="250.5,-56.5 250.5,-75.5 301.5,-75.5 301.5,-56.5 250.5,-56.5"/>
<text text-anchor="middle" x="276" y="-63.5" font-family="Helvetica,sans-Serif" font-size="10.00">debug.h</text>
</a>
</g>
</g>
<!-- Node1&#45;&gt;Node7 -->
<g id="edge9" class="edge"><title>Node1&#45;&gt;Node7</title>
<path fill="none" stroke="midnightblue" d="M162.391,-112.444C184.707,-103.517 219.903,-89.4387 245.208,-79.3168"/>
<polygon fill="midnightblue" stroke="midnightblue" points="246.724,-82.4801 254.709,-75.5164 244.124,-75.9807 246.724,-82.4801"/>
</g>
<!-- Node6&#45;&gt;Node2 -->
<g id="edge6" class="edge"><title>Node6&#45;&gt;Node2</title>
<path fill="none" stroke="midnightblue" d="M63.9086,-56.083C56.8446,-48.2982 46.4124,-36.8015 37.8511,-27.3665"/>
<polygon fill="midnightblue" stroke="midnightblue" points="40.2527,-24.8047 30.9408,-19.7511 35.0688,-29.5087 40.2527,-24.8047"/>
</g>
<!-- Node6&#45;&gt;Node3 -->
<g id="edge7" class="edge"><title>Node6&#45;&gt;Node3</title>
<path fill="none" stroke="midnightblue" d="M74.8072,-56.083C77.0847,-48.8486 80.3713,-38.4087 83.2084,-29.3968"/>
<polygon fill="midnightblue" stroke="midnightblue" points="86.5806,-30.3406 86.245,-19.7511 79.9036,-28.2385 86.5806,-30.3406"/>
</g>
<!-- Node6&#45;&gt;Node4 -->
<g id="edge8" class="edge"><title>Node6&#45;&gt;Node4</title>
<path fill="none" stroke="midnightblue" d="M85.9781,-56.324C99.5496,-47.9002 120.38,-34.9709 136.325,-25.0741"/>
<polygon fill="midnightblue" stroke="midnightblue" points="138.406,-27.9019 145.057,-19.6545 134.714,-21.9544 138.406,-27.9019"/>
</g>
</g>
</svg>
